# xmcd
#
# Track frame offsets:
#	150
#	12375
#	28490
#	38632
#	44457
#	56482
#	67345
#	78505
#	89680
#	105685
#	115957
#	128437
#	140385
#	152200
#	162840
#	174277
#	185102
#	195147
#
# Disc length: 2750 seconds
#
# Revision: 1
# Processed by: cddbd v1.5.1PL2 Copyright (c) Steve Scherf et al.
# Submitted via: dBpowerAMP V4.0
#
DISCID=f70abc12
DTITLE=Various Artist - The Nashville Dream (Disc2)
DYEAR=1999
DGENRE=Country
TTITLE0=Billie Jo Spears - You Never Can Tell
TTITLE1=Brenda Lee - Coming On Strong
TTITLE2=Patsy Cline - Two Cigarettes In An Ashtry
TTITLE3=Loretta Lynn - I Fall To Pieces
TTITLE4=Billie Jo Speers - Misty Blue
TTITLE5=Donna Fargo - Wishful Thinking
TTITLE6=Jo Anne Houston - The Race Is On
TTITLE7=Jeannie C. Riley - Box Of Memories
TTITLE8=Anne Muray - Both Sides Now
TTITLE9=Billie Jo Speers - It Makes No Difference Now
TTITLE10=Jo Anne Houston - Blue Blue Day
TTITLE11=Anne Murray - The Last Thing On My Mind
TTITLE12=Billie Jo Spears - Ease The Want In Me
TTITLE13=Dolly Parton - It Wasen`t God Who Made Honky Tonk Angels
TTITLE14=Pasty Cline - Walkin` After Midnight
TTITLE15=Loretta Lynn - Crazy
TTITLE16=Brenda Lee - I`m Sorry
TTITLE17=Pasty Cline - That Wonderful Someone
EXTD=
EXTT0=
EXTT1=
EXTT2=
EXTT3=
EXTT4=
EXTT5=
EXTT6=
EXTT7=
EXTT8=
EXTT9=
EXTT10=
EXTT11=
EXTT12=
EXTT13=
EXTT14=
EXTT15=
EXTT16=
EXTT17=
PLAYORDER=
